<svg xmlns="http://www.w3.org/2000/svg" viewBox="0 0 51.7 51.7"><path d="M43.7 7.9c9.9 9.9 9.9 25.9 0 35.8s-25.9 9.9-35.8 0-9.9-25.9 0-35.8 25.9-9.9 35.8 0z" fill="none" stroke="#7b7b7b" stroke-miterlimit="10" stroke-width="2"/><path d="M14.3 33.6V23.1h-3.8v-1.4c.5 0 1 0 1.4-.1.5-.1.9-.2 1.3-.4s.7-.5 1-.8c.3-.4.4-.8.5-1.4H16v14.7c0-.1-1.7-.1-1.7-.1zm7.6-12.5c.2-.5.6-.9 1-1.2.4-.3.9-.6 1.4-.7.5-.2 1.1-.2 1.6-.2.8 0 1.5.1 2 .3.6.2 1 .5 1.4.8.4.4.6.8.8 1.2s.2.9.2 1.4c0 .7-.2 1.3-.5 1.8-.4.5-.9 1-1.5 1.2.9.3 1.5.7 2 1.4s.6 1.4.6 2.3c0 .7-.1 1.4-.4 1.9-.3.6-.6 1-1 1.4s-.9.7-1.5.9-1.2.3-1.9.3-1.4-.1-2-.3-1.1-.5-1.6-.8c-.5-.4-.8-.8-1.1-1.4-.3-.6-.4-1.2-.4-2 0-.9.2-1.6.7-2.3.4-.6 1.1-1.1 1.9-1.4-.6-.2-1.1-.7-1.5-1.2-.4-.6-.6-1.2-.6-1.8 0-.6.1-1.2.4-1.6zm1.8 10.4c.6.5 1.3.8 2.2.8.4 0 .8-.1 1.2-.2s.7-.3 1-.6.5-.6.6-.9c.1-.3.2-.7.2-1.1 0-.4-.1-.8-.2-1.1s-.4-.6-.7-.9c-.3-.2-.6-.4-1-.6-.4-.1-.8-.2-1.2-.2s-.8.1-1.2.2c-.4.1-.7.3-1 .6-.3.2-.5.5-.7.9-.2.3-.2.7-.2 1.2.2.7.5 1.4 1 1.9zm-.1-7.7c.1.3.3.5.6.7.2.2.5.3.8.4.3.1.7.1 1 .1.7 0 1.3-.2 1.7-.6.5-.4.7-1 .7-1.7s-.2-1.3-.7-1.7c-.5-.4-1.1-.6-1.8-.6-.3 0-.7 0-1 .1s-.6.2-.8.4-.4.4-.5.7-.2.6-.2 1c0 .5.1.9.2 1.2zm19.5 3.9v1.4h-4.5v4.5h-1.4v-4.5h-4.5v-1.4h4.5v-4.5h1.4v4.5h4.5z" fill="#7b7b7b"/></svg>