<svg xmlns="http://www.w3.org/2000/svg" viewBox="0 0 1000 1000"><path d="M467.3 10.17C312.41 22.25 175.74 101.88 90.97 229.83c-41.2 62.19-65.56 126.57-77.44 205-4.16 27.73-4.75 94.87-1.19 122.8 20.8 158.65 109.53 291.36 246.59 369.79 51.5 29.31 108.15 48.72 170.73 58.43 39.22 5.94 101.41 5.94 140.63 0 152.51-23.57 280.86-111.51 356.92-244.61 30.11-52.88 49.91-111.51 59.22-176.68 4.75-32.48 4.75-96.26 0-128.74-16.04-110.92-62.98-205.6-139.83-282.25-75.86-75.86-169.74-123-276.1-138.84-24.96-3.57-82-6.14-103.2-4.56zm102 35.45c184.01 29.12 331.37 163.8 377.12 344.64 9.31 37.43 12.08 61.8 12.08 109.93 0 49.12-2.58 71.5-12.88 112.5-38.02 150.73-152.5 273.93-300.06 323.05-105.57 35.26-214.31 31.69-319.08-9.9-11.49-4.56-20.4-8.91-20.2-9.71.4-.79 27.13-30.7 59.62-66.55l59.02-64.97 93.49-40.8c144-62.99 143.6-62.79 154.3-73.88 4.95-5.15 10.1-11.88 11.29-14.86 5.74-14.66 115.08-388.02 115.08-393.36 0-9.31-8.32-20-18.62-23.97l-8.71-3.37L580 291.23c-105.57 31.29-194.9 58.03-198.46 59.62-3.76 1.58-10.3 5.55-14.66 8.91-9.71 7.92-21.59 32.09-78.63 160.24l-40.21 90.12-70.31 64.17c-39.22 35.65-70.91 63.38-71.9 62.39-4.16-4.36-26.34-49.52-34.46-70.12-10.3-26.74-21.19-67.15-26.34-98.04-5.55-33.67-4.95-107.95 1.19-142.21 22.98-129.73 92.7-237.48 200.64-309.58 62.39-41.59 127.56-64.37 213.52-74.87 15.83-1.98 88.92.6 108.92 3.76zm39.82 356.33L487.5 523.56l-8.12-2.77c-10.3-3.76-27.53-3.96-38.42-.79-11.49 3.56-25.75 16.44-31.29 28.72-6.73 14.26-6.54 34.07.4 48.13 11.88 23.97 39.81 36.64 64.77 29.31 30.5-8.91 46.94-39.02 38.03-69.52l-3.37-11.49 123.4-123.4c67.94-67.94 123.59-123.2 123.99-122.8 1.58 1.58-101.21 343.25-104.97 348-4.56 6.34-10.7 9.11-143.8 67.34l-89.73 39.42-7.33-5.75c-8.91-7.33-130.92-129.73-130.92-131.52 0-1.39 42.58-97.85 77.64-175.69 14.26-31.49 24.16-50.71 28.12-54.87 5.74-6.14 16.64-9.71 171.53-55.85 90.91-27.14 167.17-49.32 169.35-49.52 2.56-.18-40.02 43.8-117.66 121.44zM473.05 551.49c7.92 5.35 10.89 11.29 11.09 22.18 0 15.84-12.68 25.75-29.12 22.58-14.46-2.57-23.97-19.41-18.42-32.68 6.14-14.66 23.77-20.4 36.45-12.08zm-82 223.02c0 2.57-113.29 125.77-115.67 125.77-3.37 0-28.32-16.04-49.71-31.89-33.08-24.56-61.99-52.88-88.73-86.75l-13.07-16.84 7.33-6.34c3.96-3.37 34.46-31.09 67.74-61.6l60.41-55.26 65.76 65.96c36.23 36.25 65.94 66.36 65.94 66.95z" fill="#76ac03"/></svg>