<svg xmlns="http://www.w3.org/2000/svg" viewBox="0 0 3649.5 4491.9"><style>.st0{fill:rgba(255,255,255,.4)}</style><path class="st0" d="M1855.5 4491.2h-58c-5.5-.7-11.2-.8-16.5-2.4-18.2-5.3-36.7-9.7-54.2-16.9-383.7-156.5-716.9-386.2-997.2-691.5C423.3 3446.6 210.2 3061 92.6 2623c-27.4-102.1-49.1-205.5-63.5-310.3-5.2-37.5-10.4-75.1-13.9-112.8-4.8-51.7-8.4-103.6-11.8-155.4-1.7-25.6-2.1-51.3-3-76.9.2-5 .6-9.9.5-14.9-.2-14.7-.8-29.3-.8-44C0 1509.4 0 1110 0 710.6c0-8.3.1-16.6.1-24.9 2.2-13.8 3.1-27.9 6.7-41.3 25.3-96.5 85.4-160.7 181.1-189 473-139.5 946.2-278.4 1419.2-417.5 40.5-11.9 81-24.2 122.9-30.6 64-9.9 128-9.8 191.8.5 24.9 4.1 49.8 9.5 74 16.6 176.1 51.3 352.1 103.2 528.1 154.9 313 92 626.1 184 939.1 276 44.1 13 82.7 35.2 114.4 68.6 40.2 42.3 65.4 92 70.4 150.9.1 1.5 1.1 2.9 1.7 4.3v1260c-.5 10.1-1 20.3-1.6 30.4-.1 13.2-.1 26.5-.2 39.7-.6 17-1.1 34-1.8 50.9-2.7 64.8-9.4 129.3-16.8 193.8-2.3 19.7-5.1 39.4-8 59.1-2.5 17.6-5 35.3-8.3 52.8-9.2 48.7-17.7 97.5-28.4 145.9-48.4 219.6-123 430-223.9 631-155.8 310.5-362.3 582.7-619.7 816-241.9 219.3-514.5 389.7-816.8 513-17.9 7.3-36.4 12.9-55.5 16.1-4.3.8-8.6 2.3-13 3.4zM205.3 1386.3c0 173.3-.1 346.7.1 520 0 30 .5 60 1.3 90 1.5 56.7 5.3 113.2 11 169.6 3.6 35.8 7.5 71.5 12.1 107.2 2.6 20.6 6.7 40.9 10.1 61.4 13.6 81.2 30.7 161.6 52.3 241.1 110.6 407.6 310.1 766 596.9 1075.6 256.7 277.1 561 486.1 910.2 629.8 17.4 7.2 33.7 7.3 51.2.1 287.5-118.1 546.1-281.7 773.9-493.3 274.6-255.1 484.3-555.7 628.2-901.8 60.4-145.3 106.4-295 138.3-449 8.2-39.4 13.9-79.3 20.9-119 2.4-13.6 5.7-27 7.3-40.6 6.4-54.6 13.1-109.2 18-163.9 6.1-68.7 8.1-137.7 8.1-206.8.1-341.7 0-683.3 0-1025 0-58.7.1-117.3 0-176-.1-28.3-13.9-46.5-40.9-54.4-487.1-143.1-974-286.2-1460.9-429.3-78.8-23.2-157.7-23.2-236.5-.1-118.2 34.7-236.4 69.5-354.6 104.3-336.7 99-673.4 198-1010.2 297-32.6 9.6-65.2 19.1-97.8 28.7-20.3 6-33.4 19.1-38 39.7-1.4 6.4-1 13.3-1 19.9v674.8z"/><path class="st0" d="M3071.7 1553.3c0 134.7.4 269.3-.2 404-.3 68.4-5.5 136.5-13.5 204.4-2.2 18.9-3.9 37.8-7 56.5-8.7 51-16.6 102.2-27.3 152.9-46.5 220.7-126.2 429-239 624.3-195.4 338.3-461.9 606.6-798.3 805.2-28.7 16.9-58.2 32.5-87.4 48.5-26.4 14.5-54.7 20.1-84.8 18.5-22.7-1.2-43.6-8.2-63.4-18.6-85.4-44.8-167.6-94.8-246.1-150.8-306-218.1-542.7-495.3-708.2-832.8-79.4-162-137-331.6-173.2-508.4-5.9-28.7-10.7-57.6-16.1-86.4-6.7-35.9-11-72.3-15.2-108.5-9.4-80.8-14.1-161.9-14.1-243.2-.2-287-.3-574 .1-861 .1-61.1 28.3-107.1 81.4-137.3 10-5.7 21.2-9.8 32.3-13C1053.9 801 1416.2 694.5 1778.5 588c31.3-9.2 62.2-9.1 93.5.1 362.3 106.6 724.6 212.8 1086.8 319.6 62.6 18.5 99.8 61.4 111.6 125.7 1.7 9.4 1.6 19.2 1.6 28.9.1 163.7.1 327.3.1 491h-.4zM783.2 1093.8v14c0 261 .1 522-.1 782.9 0 67.4 1.8 134.6 8.1 201.7 4.9 51.2 10.5 102.3 19.8 153 3.4 18.3 6.5 36.7 10.1 55 30.1 153 78 300.2 143.8 441.6 118.9 255.7 285 476 496.9 662 108.9 95.5 227 178 354 247.7 6.6 3.6 12 5 18.2.1 2.1-1.6 4.6-2.6 7-3.9 329.5-184.2 587.6-440.3 773.9-768.6 97.9-172.4 166.7-356.1 208.3-549.9 10.3-48.1 19.6-96.4 24.7-145.5 2.1-20.6 5.7-41.1 8.1-61.8 7.4-65 11.1-130.2 11.2-195.5.3-274.3.2-548.6.2-822.9v-9.7c-4.6-1.4-8.1-2.5-11.6-3.5-338.6-99.6-677.2-199.1-1015.8-298.8-10-2.9-19.3-3-29.3 0-316.9 93.3-633.8 186.4-950.7 279.6-25.5 7.4-50.7 14.8-76.8 22.5z"/></svg>